<?xml version="1.0" encoding="UTF-8" standalone="no"?>
<!-- Created with Inkscape (http://www.inkscape.org/) -->

<svg
   xmlns:dc="http://purl.org/dc/elements/1.1/"
   xmlns:cc="http://creativecommons.org/ns#"
   xmlns:rdf="http://www.w3.org/1999/02/22-rdf-syntax-ns#"
   xmlns:svg="http://www.w3.org/2000/svg"
   xmlns="http://www.w3.org/2000/svg"
   xmlns:sodipodi="http://sodipodi.sourceforge.net/DTD/sodipodi-0.dtd"
   xmlns:inkscape="http://www.inkscape.org/namespaces/inkscape"
   width="203.08612mm"
   height="346.52164mm"
   viewBox="0 0 719.59649 1227.8326"
   id="svg2"
   version="1.1"
   inkscape:version="0.91 r13725"
   sodipodi:docname="pintglass.svg">
  <defs
     id="defs4" />
  <sodipodi:namedview
     id="base"
     pagecolor="#ffffff"
     bordercolor="#666666"
     borderopacity="1.0"
     inkscape:pageopacity="0.0"
     inkscape:pageshadow="2"
     inkscape:zoom="1.8649341"
     inkscape:cx="359.79825"
     inkscape:cy="426.49864"
     inkscape:document-units="px"
     inkscape:current-layer="layer1"
     showgrid="false"
     fit-margin-top="0"
     fit-margin-left="0"
     fit-margin-right="0"
     fit-margin-bottom="0"
     inkscape:window-width="1529"
     inkscape:window-height="1007"
     inkscape:window-x="930"
     inkscape:window-y="305"
     inkscape:window-maximized="0" />
  <metadata
     id="metadata7">
    <rdf:RDF>
      <cc:Work
         rdf:about="">
        <dc:format>image/svg+xml</dc:format>
        <dc:type
           rdf:resource="http://purl.org/dc/dcmitype/StillImage" />
        <dc:title></dc:title>
      </cc:Work>
    </rdf:RDF>
  </metadata>
  <g
     inkscape:label="Layer 1"
     inkscape:groupmode="layer"
     id="layer1"
     transform="translate(-30.446431,52.642567)">
    <path
       inkscape:connector-curvature="0"
       id="path3351"
       d="m 289.19643,1174.1479 c -20.28125,-0.6875 -36.03125,-1.6348 -35,-2.105 1.03125,-0.4701 -3.1875,-0.6379 -9.375,-0.3726 -12.5253,0.095 -5.97617,0.1754 -15.41389,-0.5584 -5.615,-0.5829 -11.74236,-0.9801 -18.96111,-1.895 -10.00023,-1.287 -19.5574,-2.8371 -29.375,-3.9399 -8.98063,-1.0212 -15.50358,-4.3034 -21.46253,-10.7991 -7.28152,-7.9376 -10.01127,-17.7118 -12.31072,-44.08 -1.01922,-11.6875 -2.1343,-23.2188 -2.47798,-25.625 -0.34367,-2.4063 -1.16861,-10.2813 -1.83321,-17.5 -0.66459,-7.2188 -3.46608,-35.625 -6.22551,-63.125 -6.39728,-63.75382 -18.15913,-182.53733 -21.28913,-214.99998 -3.1229,-32.38901 -5.90085,-60.5915 -7.51064,-76.25 -0.70678,-6.875 -2.95755,-29.65625 -5.00168,-50.625 -2.04414,-20.96875 -6.805589,-69.34375 -10.581009,-107.5 -3.77542,-38.15625 -10.25798,-103.6875 -14.40569,-145.625 C 64.627461,274.20787 44.236421,70.327856 39.905151,28.522919 c -3.30125,-31.8633374 -4.77512,-41.927902 -6.83387,-46.666131 -1.47924,-3.404484 -2.62485,-8.695947 -2.62485,-12.123886 0,-5.413103 0.44724,-6.413443 4.0625,-9.086513 7.38995,-5.46404 0.25664,-4.81326 90.312499,-8.23941 19.9375,-0.75852 72.25,-1.97696 116.25,-2.70764 97.3759,-1.61707 486.69635,-3.11197 494.77942,-1.89984 10.91128,1.63625 16.28803,10.94939 13.43606,23.272794 -1.28823,5.566532 -9.14475,97.357164 -35.0883,409.950627 -7.56028,91.09375 -14.87526,178.5625 -16.2555,194.375 -1.38022,15.8125 -4.75153,56.03125 -7.49178,89.375 -2.74027,33.34375 -5.55735,66.8125 -6.26022,74.375 -0.70286,7.5625 -4.0841,48.0625 -7.51386,90 -15.04981,184.02188 -20.00371,244.15138 -20.59679,249.99998 -0.34858,3.4375 -1.4765,16.0937 -2.50648,28.125 -2.25388,26.3274 -3.06922,32.3164 -4.52179,33.2141 -0.60816,0.3759 -1.10576,1.647 -1.10576,2.8249 0,7.4695 -18.42805,17.1904 -30.57907,19.3129 -5.36877,1.3368 -6.03571,2.0628 -10.2324,2.6651 -3.33495,0.4612 -8.87603,1.3525 -12.31353,1.9804 -31.62062,0.7813 -79.3113,4.2564 -102.5,5.5176 -4.8125,0.2918 -12.6875,0.169 -17.5,0.8922 -11.6622,1.7527 -138.30749,2.0718 -185.625,0.4678 z"
       style="fill-opacity:1"
       sodipodi:nodetypes="scccccssssssssssssssssssssssssscscccccs" />
  </g>
</svg>
