<?xml version="1.0" encoding="UTF-8" standalone="no"?>
<!-- Created with Inkscape (http://www.inkscape.org/) -->

<svg
   xmlns:dc="http://purl.org/dc/elements/1.1/"
   xmlns:cc="http://creativecommons.org/ns#"
   xmlns:rdf="http://www.w3.org/1999/02/22-rdf-syntax-ns#"
   xmlns:svg="http://www.w3.org/2000/svg"
   xmlns="http://www.w3.org/2000/svg"
   xmlns:sodipodi="http://sodipodi.sourceforge.net/DTD/sodipodi-0.dtd"
   xmlns:inkscape="http://www.inkscape.org/namespaces/inkscape"
   width="0.54633033in"
   height="0.93219215in"
   viewBox="0 0 49.169729 83.897299"
   id="svg2"
   version="1.1"
   inkscape:version="0.91 r13725"
   sodipodi:docname="pintglass.svg">
  <defs
     id="defs4" />
  <sodipodi:namedview
     id="base"
     pagecolor="#ffffff"
     bordercolor="#666666"
     borderopacity="1.0"
     inkscape:pageopacity="0.0"
     inkscape:pageshadow="2"
     inkscape:zoom="13.206624"
     inkscape:cx="24.584865"
     inkscape:cy="41.948647"
     inkscape:document-units="px"
     inkscape:current-layer="layer1"
     showgrid="false"
     fit-margin-top="0"
     fit-margin-left="0"
     fit-margin-right="0"
     fit-margin-bottom="0"
     inkscape:window-width="1548"
     inkscape:window-height="1287"
     inkscape:window-x="911"
     inkscape:window-y="25"
     inkscape:window-maximized="0"
     units="in" />
  <metadata
     id="metadata7">
    <rdf:RDF>
      <cc:Work
         rdf:about="">
        <dc:format>image/svg+xml</dc:format>
        <dc:type
           rdf:resource="http://purl.org/dc/dcmitype/StillImage" />
        <dc:title></dc:title>
      </cc:Work>
    </rdf:RDF>
  </metadata>
  <g
     inkscape:label="Layer 1"
     inkscape:groupmode="layer"
     id="layer1"
     transform="translate(-411.31872,-392.07235)">
    <path
       inkscape:connector-curvature="0"
       id="path3351"
       d="m 428.99897,475.89843 c -1.38581,-0.047 -2.462,-0.1117 -2.39153,-0.14384 0.0705,-0.0322 -0.2178,-0.0436 -0.6406,-0.0253 -0.85584,0.007 -0.40835,0.0119 -1.05322,-0.0383 -0.38367,-0.0398 -0.80235,-0.0669 -1.2956,-0.12947 -0.68332,-0.0879 -1.33635,-0.19386 -2.00719,-0.26921 -0.61364,-0.0698 -1.05935,-0.29407 -1.46652,-0.73791 -0.49755,-0.54237 -0.68407,-1.21022 -0.84119,-3.01195 -0.0696,-0.79863 -0.14584,-1.58657 -0.16932,-1.75097 -0.0235,-0.16441 -0.0799,-0.70252 -0.12526,-1.19574 -0.0454,-0.49326 -0.23684,-2.43426 -0.42539,-4.31333 -0.43712,-4.35627 -1.2408,-12.47271 -1.45468,-14.69085 -0.21338,-2.21313 -0.4032,-4.14019 -0.5132,-5.21014 -0.0483,-0.46977 -0.20208,-2.02638 -0.34176,-3.45919 -0.13967,-1.43278 -0.46502,-4.73822 -0.72299,-7.34543 -0.25798,-2.60721 -0.70093,-7.08491 -0.98434,-9.95049 -0.91192,-9.22039 -2.30523,-23.15144 -2.60118,-26.00795 -0.22558,-2.17721 -0.32629,-2.86492 -0.46696,-3.18868 -0.10107,-0.23263 -0.17935,-0.59419 -0.17935,-0.82842 0,-0.36988 0.0306,-0.43823 0.27759,-0.62088 0.50495,-0.37335 0.0175,-0.32889 6.17102,-0.563 1.36232,-0.0518 4.93681,-0.13508 7.94331,-0.18501 6.65366,-0.11049 33.25576,-0.21264 33.80808,-0.12981 0.74556,0.1118 1.11295,0.74816 0.91808,1.59022 -0.088,0.38035 -0.62486,6.65237 -2.39757,28.01175 -0.51659,6.22442 -1.01642,12.20112 -1.11073,13.28156 -0.0943,1.08048 -0.32467,3.82862 -0.51191,6.10698 -0.18725,2.27836 -0.37973,4.56526 -0.42776,5.082 -0.048,0.51674 -0.27907,3.28411 -0.51342,6.14969 -1.02835,12.57414 -1.36685,16.68276 -1.40737,17.08236 -0.0238,0.23489 -0.10089,1.09967 -0.17127,1.92178 -0.154,1.79897 -0.20971,2.20819 -0.30897,2.26951 -0.0415,0.0257 -0.0755,0.11254 -0.0755,0.19302 0,0.51038 -1.25919,1.17464 -2.08946,1.31966 -0.36685,0.0913 -0.41242,0.14092 -0.69918,0.1821 -0.22787,0.0314 -0.60649,0.0924 -0.84137,0.13534 -2.16063,0.0534 -5.41932,0.29081 -7.00379,0.377 -0.32884,0.0199 -0.86693,0.0115 -1.19577,0.0609 -0.79687,0.11978 -9.45049,0.14158 -12.68368,0.0322 z"
       style="fill-opacity:1;fill:#ffffff;stroke:#000000;stroke-opacity:1"
       sodipodi:nodetypes="scccccssssssssssssssssssssssssscscccccs" />
  </g>
</svg>
